<svg width="288" height="44" viewBox="0 0 288 44" fill="none" xmlns="http://www.w3.org/2000/svg">
<path fill-rule="evenodd" clip-rule="evenodd" d="M43.6503 44H60.2452L48.9092 0H32.2559L38.3913 23.6069L43.6503 44Z" fill="url(#paint0_linear)"/>
<path fill-rule="evenodd" clip-rule="evenodd" d="M23.1974 8.99805H16.4192H9.75781L13.556 23.6063L16.4776 34.9423L19.3992 23.6063L23.1974 8.99805Z" fill="url(#paint1_linear)"/>
<path fill-rule="evenodd" clip-rule="evenodd" d="M39.0923 43.9997H28.8666H18.6992L23.7245 24.7168L28.8666 4.67432L34.0671 24.7168L39.0923 43.9997Z" fill="url(#paint2_linear)"/>
<path fill-rule="evenodd" clip-rule="evenodd" d="M14.2576 43.9999H7.24568H0L3.62284 30.0345L7.12882 16.478L9.2324 24.7171L14.2576 43.9999Z" fill="url(#paint3_linear)"/>
<path d="M82.682 23.5476C82.3899 25.4759 82.1561 27.1705 81.9808 28.6313C81.8055 30.0921 81.5718 31.2608 81.4549 32.2541C81.3381 33.2475 81.1628 34.0655 81.1043 34.7083C80.9875 35.3511 80.929 35.877 80.8706 36.2276C80.8122 36.5782 80.7537 36.8703 80.7537 37.0456C80.7537 37.2209 80.6953 37.3378 80.6953 37.3378V37.3962H86.4217V37.3378C86.4217 37.2794 86.4802 37.1041 86.4802 36.7535C86.5386 36.4029 86.597 35.877 86.6555 35.1758C86.7139 34.4746 86.8308 33.5396 87.0061 32.371C87.1229 31.2023 87.2982 29.7415 87.4735 27.9885C87.6488 26.6446 87.7657 25.4175 87.8826 24.1319C87.9994 22.9049 88.1163 21.6778 88.1747 20.4507H88.2332C88.7006 21.6193 89.2265 22.7296 89.7524 23.7813C90.2783 24.8331 90.8626 25.9434 91.3885 26.9952C91.9729 28.047 92.7909 29.4493 93.7258 31.0855C94.7192 32.7216 95.8294 34.6499 97.1734 36.8703H97.933C99.2186 34.7083 100.387 32.8385 101.322 31.2023C102.257 29.5662 103.075 28.2222 103.659 27.1705C104.068 26.4693 104.419 25.7681 104.77 25.0669C105.12 24.3657 105.471 23.6645 105.88 22.9633C106.23 22.2621 106.64 21.444 106.99 20.5091H107.049C107.107 21.6778 107.165 22.9049 107.341 24.1319C107.458 25.359 107.574 26.6446 107.75 27.9885C107.925 29.7415 108.159 31.2023 108.276 32.371C108.393 33.5396 108.509 34.4746 108.626 35.1758C108.685 35.877 108.802 36.4029 108.802 36.7535C108.86 37.1041 108.86 37.2794 108.86 37.3378V37.3962H114.879V37.3378C114.879 37.2794 114.879 37.2209 114.82 37.0456C114.82 36.8703 114.762 36.6366 114.703 36.286C114.645 35.9354 114.586 35.4095 114.528 34.7667C114.411 34.124 114.353 33.3059 114.177 32.3126C114.061 31.3192 113.885 30.0921 113.71 28.6897C113.535 27.2289 113.301 25.5928 113.067 23.6061L110.788 6.36834H110.029C108.626 8.76409 107.341 10.8677 106.289 12.7375C105.237 14.5489 104.244 16.1851 103.484 17.529C102.666 18.873 102.023 20.0416 101.439 21.035C100.855 22.0284 100.387 22.8464 100.037 23.4892C99.6276 24.1904 99.3354 24.7163 99.0432 25.1837C98.8095 25.6512 98.5758 26.0602 98.4005 26.4108C98.2252 26.7614 98.0499 27.112 97.8746 27.4042H97.8162C97.6409 27.0536 97.4656 26.703 97.2903 26.3524C97.115 26.0018 96.8812 25.5928 96.6475 25.1253C96.4138 24.6578 96.0632 24.0735 95.7126 23.3723C95.3035 22.6711 94.8361 21.8531 94.3102 20.9181C93.7843 19.9248 93.0831 18.7561 92.3235 17.4122C91.5638 16.0682 90.6289 14.4905 89.5771 12.6207C88.5253 10.8092 87.2982 8.70565 85.8958 6.3099H85.1946L82.682 23.5476ZM120.839 23.5476C120.839 24.8331 120.897 25.9434 120.956 26.9952C121.014 27.9885 121.189 28.9234 121.365 29.6831C121.598 30.5011 121.891 31.2608 122.241 31.962C122.884 33.2475 123.76 34.2993 124.812 35.1758C125.864 36.0523 127.149 36.7535 128.61 37.2209C130.071 37.6884 131.707 37.9221 133.46 37.9221C134.746 37.9221 135.973 37.7468 137.083 37.4547C138.193 37.1625 139.245 36.7535 140.122 36.2276C141.057 35.7017 141.816 35.1173 142.517 34.4161C143.219 33.7149 143.744 33.0138 144.153 32.2541C144.562 31.4945 144.913 30.7349 145.147 29.8584C145.381 28.9819 145.556 28.047 145.673 26.9952C145.79 25.9434 145.848 24.7747 145.848 23.4307V19.691V6.71893V6.6605H140.063V6.71893V19.691V23.3723C140.063 24.8916 140.005 26.1771 139.771 27.2873C139.596 28.3391 139.245 29.274 138.778 29.9752C138.193 30.8517 137.434 31.4361 136.499 31.9035C135.564 32.3126 134.512 32.5463 133.343 32.5463C132.584 32.5463 131.883 32.4294 131.123 32.1957C130.422 31.962 129.779 31.6698 129.195 31.2608C128.61 30.8517 128.143 30.3258 127.792 29.7415C127.383 29.0403 127.149 28.2222 126.974 27.2289C126.799 26.2355 126.74 25.0084 126.74 23.5476V19.691V6.71893V6.6605H120.722V6.71893V19.691V23.5476H120.839ZM154.262 37.3962H159.872V26.6446V25.0669H160.807C162.443 27.5211 163.962 29.7415 165.306 31.7867C166.65 33.8318 167.936 35.7017 169.046 37.3962H170.156H172.552H175.824V37.3378C175.766 37.2794 175.649 37.1041 175.474 36.8703C175.298 36.6366 175.123 36.3444 174.889 36.0523C174.655 35.7017 174.422 35.4095 174.188 35.0589C173.954 34.7083 173.721 34.4161 173.487 34.0655C172.201 32.2541 171.149 30.7933 170.331 29.6246C169.513 28.456 168.812 27.4626 168.286 26.7614C167.76 26.0602 167.41 25.4759 167.118 25.1253C166.825 24.7747 166.65 24.4825 166.533 24.3072C166.416 24.1319 166.358 24.0151 166.3 23.9566C166.65 23.8398 167.001 23.6645 167.41 23.4307C167.819 23.197 168.228 22.9049 168.578 22.6127C168.929 22.379 169.28 22.0284 169.689 21.6193C170.098 21.2103 170.448 20.6844 170.74 20.1001C171.091 19.5157 171.325 18.8145 171.559 18.0549C171.792 17.2953 171.909 16.4188 171.909 15.4839C171.909 14.4321 171.792 13.4387 171.5 12.6207C171.266 11.8026 170.916 11.043 170.507 10.4586C170.098 9.81588 169.63 9.34842 169.104 8.88095C168.578 8.47192 168.053 8.12132 167.527 7.82916C167.001 7.53699 166.533 7.3617 166.066 7.24483C165.189 6.95267 164.254 6.77737 163.261 6.6605C162.268 6.54364 161.216 6.4852 160.047 6.4852C159.755 6.4852 159.346 6.4852 158.937 6.4852C158.528 6.4852 158.119 6.4852 157.71 6.4852C157.301 6.4852 156.95 6.4852 156.658 6.54364C156.191 6.54364 155.782 6.60207 155.314 6.60207C154.905 6.60207 154.555 6.6605 154.204 6.71893V37.3962H154.262ZM166.183 15.9513C166.183 16.711 166.066 17.3537 165.832 17.8796C165.598 18.4055 165.306 18.873 164.956 19.2236C164.605 19.5742 164.254 19.8663 163.845 20.0416C163.436 20.2754 163.027 20.4507 162.501 20.5675C161.976 20.6844 161.45 20.7428 160.924 20.7428C160.748 20.7428 160.515 20.7428 160.339 20.7428C160.164 20.7428 159.989 20.7428 159.872 20.6844V11.5104C160.047 11.5104 160.281 11.452 160.515 11.452C160.748 11.452 161.041 11.452 161.391 11.452C162.385 11.452 163.203 11.6273 163.904 11.9779C164.605 12.3285 165.189 12.8544 165.598 13.4972C166.007 14.1399 166.183 14.958 166.183 15.9513ZM195.633 31.3192C196.159 32.6047 196.568 33.7149 196.918 34.533C197.269 35.4095 197.503 36.0523 197.678 36.4613C197.853 36.9288 197.97 37.1625 197.97 37.2209V37.3962H204.515V37.2794C204.515 37.2209 204.456 37.1625 204.398 36.9872L191.309 6.07617H190.491L177.46 36.2276C177.285 36.5782 177.168 36.8703 177.11 36.9872C177.051 37.1625 176.993 37.2209 176.993 37.2794V37.3962H180.148H183.07V37.2794C183.07 37.2209 183.187 36.9288 183.362 36.5197C183.537 36.0523 183.829 35.4095 184.18 34.5914C184.531 33.7149 184.998 32.6632 185.524 31.3776H195.633V31.3192ZM187.335 26.5861V26.4693C187.92 25.0084 188.387 23.8398 188.796 22.8464C189.205 21.8531 189.497 21.035 189.731 20.3922C189.965 19.7495 190.14 19.2236 190.315 18.8146C190.432 18.4055 190.549 18.0549 190.666 17.7628H190.725C190.783 18.0549 190.9 18.4055 191.075 18.8146C191.192 19.2236 191.426 19.7495 191.601 20.3922C191.835 21.035 192.127 21.8531 192.536 22.8464C192.887 23.8398 193.354 25.0669 193.938 26.5277V26.6446H187.335V26.5861ZM209.949 37.3962H215.559V27.0536C216.377 27.0536 217.195 26.9952 217.954 26.9367C218.772 26.8783 219.532 26.7614 220.292 26.5861C220.934 26.4108 221.577 26.2355 222.161 26.0018C222.746 25.7681 223.33 25.4759 223.856 25.1253C224.499 24.7163 225.142 24.2488 225.726 23.6645C226.31 23.0802 226.778 22.379 227.245 21.6193C227.596 20.9181 227.888 20.1585 228.122 19.3404C228.355 18.464 228.414 17.5875 228.472 16.6525C228.472 15.1917 228.238 13.9062 227.771 12.796C227.304 11.6857 226.719 10.7508 225.96 9.93275C225.2 9.11468 224.323 8.53035 223.389 8.06289C222.863 7.77073 222.278 7.537 221.694 7.3617C221.11 7.1864 220.467 7.0111 219.883 6.89423C219.298 6.77737 218.655 6.71893 218.071 6.6605C217.662 6.60207 217.253 6.60207 216.844 6.60207C216.377 6.60207 215.968 6.60207 215.5 6.60207C215.033 6.60207 214.624 6.60207 214.273 6.60207C213.747 6.60207 213.221 6.60207 212.695 6.6605C212.169 6.6605 211.644 6.71893 211.234 6.71893C210.767 6.71893 210.416 6.77737 210.124 6.77737C209.949 16.9447 209.949 27.1705 209.949 37.3962ZM222.629 16.6525C222.629 17.2369 222.57 17.8212 222.454 18.2887C222.337 18.7561 222.103 19.2236 221.811 19.6326C221.577 19.9832 221.343 20.3338 220.993 20.626C220.642 20.9181 220.35 21.1519 219.999 21.3272C219.59 21.5609 219.123 21.7362 218.597 21.8531C218.071 21.9699 217.545 22.0284 216.961 22.0868H215.617V11.6273C215.851 11.6273 216.084 11.5689 216.318 11.5689C216.552 11.5689 216.786 11.5689 216.961 11.5689C217.604 11.5689 218.188 11.6273 218.772 11.7442C219.357 11.861 219.824 12.0363 220.292 12.3285C221.051 12.7375 221.636 13.3219 222.045 14.0815C222.395 14.7827 222.629 15.6592 222.629 16.6525ZM264.584 16.8278C264.116 15.2501 263.357 13.8478 262.48 12.5622C261.545 11.2767 260.435 10.1665 259.149 9.23155C257.864 8.29662 256.403 7.59543 254.825 7.06953C253.248 6.54364 251.553 6.3099 249.742 6.3099C247.872 6.3099 246.119 6.60207 244.483 7.12796C241.269 8.12132 238.523 10.0496 236.478 12.7375C235.484 14.0815 234.783 15.4839 234.257 17.12C233.731 18.6977 233.439 20.3922 233.439 22.2037C233.439 23.9566 233.731 25.6512 234.257 27.2289C234.783 28.8066 235.543 30.2674 236.478 31.5529C237.412 32.8385 238.581 34.0071 239.867 34.942C241.211 35.877 242.671 36.6366 244.249 37.1625C245.827 37.6884 247.58 37.9805 249.333 37.9805C251.203 37.9805 252.956 37.6884 254.592 37.1625C256.228 36.6366 257.689 35.877 259.033 34.942C260.377 33.9487 261.487 32.8385 262.422 31.4945C263.357 30.1505 264.116 28.6897 264.584 27.112C265.636 23.7229 265.636 20.0416 264.584 16.8278ZM258.565 26.1187C258.098 27.4042 257.455 28.5144 256.578 29.4493C255.702 30.3843 254.709 31.1439 253.481 31.6698C252.313 32.1957 250.969 32.4879 249.508 32.4879C248.047 32.4879 246.703 32.1957 245.476 31.6698C244.249 31.1439 243.197 30.3843 242.321 29.4493C241.444 28.5144 240.743 27.4042 240.217 26.1187C239.75 24.8916 239.458 23.4892 239.458 22.0868C239.458 20.626 239.691 19.2236 240.217 17.9381C240.685 16.6525 241.386 15.5423 242.321 14.6074C244.191 12.6207 246.762 11.6273 249.45 11.6273C250.852 11.6273 252.196 11.9195 253.365 12.4454C254.533 12.9713 255.585 13.6725 256.462 14.6658C257.338 15.6007 258.039 16.711 258.507 17.9381C259.559 20.4507 259.5 23.5476 258.565 26.1187ZM272.18 37.3962H287.782V32.371H278.257C278.199 32.371 278.14 32.371 278.14 32.3126C278.14 32.2541 278.14 32.1957 278.14 32.1373C278.14 23.606 278.14 15.1333 278.14 6.60207H272.238V37.3962H272.18Z" fill="#70636B"/>
<defs>
<linearGradient id="paint0_linear" x1="46.2505" y1="0" x2="46.2505" y2="44" gradientUnits="userSpaceOnUse">
<stop stop-color="#BFD5F0"/>
<stop offset="1" stop-color="#639BDB"/>
</linearGradient>
<linearGradient id="paint1_linear" x1="16.4776" y1="8.99805" x2="16.4776" y2="34.9423" gradientUnits="userSpaceOnUse">
<stop stop-color="#BFD5F0"/>
<stop offset="1" stop-color="#639BDB"/>
</linearGradient>
<linearGradient id="paint2_linear" x1="28.8958" y1="4.67432" x2="28.8958" y2="43.9997" gradientUnits="userSpaceOnUse">
<stop stop-color="#425B91"/>
<stop offset="1" stop-color="#639BDB"/>
</linearGradient>
<linearGradient id="paint3_linear" x1="7.12882" y1="16.478" x2="7.12882" y2="43.9999" gradientUnits="userSpaceOnUse">
<stop stop-color="#425B91"/>
<stop offset="1" stop-color="#639BDB"/>
</linearGradient>
</defs>
</svg>
