<?xml version="1.0" encoding="UTF-8"?>
<svg id="Layer_2" data-name="Layer 2" xmlns="http://www.w3.org/2000/svg" viewBox="0 0 996.74 391.53">
  <g id="Layer_1-2" data-name="Layer 1">
    <g>
      <path d="M111.23,147.8v20.04c24.83-1.36,49.14-7.47,73.67-11.36,60.26-9.54,114.05-12.98,175.1-9.25,7.98.49,15.98,1.38,23.98,1.78.52.11.66.45.82.9,1.65,4.43,1.78,11.97,2.97,16.78-14.36-.67-28.47,1.46-42.48,4.19-28.16,5.49-49.24,9.4-78.61,6.69-20.9-1.93-40.79-9.82-61.82-10.9-25.95-1.34-43.44,4.63-67.86,8.91-21.73,3.81-51.07,3.91-72.93.77-20.72-2.98-40.98-10.09-62.2-9.66l2.07-7.48,39.72,7.48v-11.74c-2.79-1.48-5.76-1.85-8.61-3.42-21.79-12-11.57-63.56,4.59-77.32,10.31-8.78,18.67-.43,24.62,8.31,8.05-23.81,24.86-43.97,42.66-61.25,17.94,18.05,37.6,41.13,44.21,66.28,7.7,29.28-9.31,57.4-39.92,60.24ZM103.21,147.8c-11.66-.33-21.83-6.16-29.77-14.31-2.18,10.19-8.93,19.37-19.71,21.12l.04,13.26c16.33,2.42,33.01,1.97,49.44,1.12v-21.18Z"/>
      <path d="M390.63,207.92l-3.4,23.79-383.87.28c-1.02-.28-3.13-18.73-3.24-20.91-.05-1.12-.56-3.85.88-3.76,18.78,1.26,36.85,6.81,55.24,10.04,24.83,4.36,51.34,5.44,76.27,1.24,21-3.54,39.59-9.84,61.45-10.69,25.2-.98,43.96,4.94,67.83,9.45,23.98,4.54,49.32,5.01,73.42,1.25,18.48-2.88,36.62-9.29,55.42-10.71Z"/>
      <path d="M378.6,264.6l-9.76,20.03c-10.41-2.74-21.01-5.09-31.75-6.28-38.58-4.26-64.43,4.12-100.94,10.69-25.97,4.67-56.19,4.47-82.09-.57-11.44-2.23-22.62-5.66-34.14-7.66-33.26-5.75-66.1-4.61-98.79,3.77l-10.11-19.69c0-.65,1.26-.15,1.76-.04,27.87,6.07,49.5,10.8,78.71,9.51,30.76-1.36,59.38-12.4,90.45-14.33,31.63-1.96,54.15,3.7,84.33,9.56,37.11,7.2,76.29,6.84,112.33-4.99Z"/>
      <path d="M341.39,324.72l-2.83,3.75-3.82,2.98c-20.65-2.82-41.67-2.07-62.17,1.45-32.43,5.57-54.6,12.16-88.94,10.73-21.94-.91-39.46-6.73-60.37-10.63-22.32-4.16-45.28-4.4-67.75-1.51l-6.7-5.93c-.16-1.44.37-.66,1.16-.58,16.44,1.73,32.35,3.29,48.94,2.01,28.64-2.2,55.91-12.53,84.72-13.76,33.41-1.43,55.11,5.01,86.66,10.72,23.25,4.21,47.81,4.66,71.1.75Z"/>
      <path d="M368.3,108.86l-67.87-.6c-1.56-.12-3,.6-4.53.62-18.82.32-36.76.53-55.56,2.27-24.47,2.27-48.78,6.39-73,10.3-.52-.45,1.49-2.88,2.12-3.31,3.32-2.23,14.16-6.12,18.5-7.83,21.45-8.45,40.71-12.92,63.42-16.74,33.48-5.64,67.63-9.32,101.47-10.19l15.45,25.48Z"/>
      <path d="M468.09,284.36c-.81,4.58-8.86,5.46-10.29.56l.24-85.04c.66-1.66,2.18-2.8,4.03-2.85,12.85.93,27.37-1.24,40.02.08,20.65,2.15,28.18,30.05,14.67,44.3-2.15,2.27-5.38,3.26-7.08,4.83-.44.4-.59.95-.36,1.18,6.15,1.57,9.81,8.74,10.82,14.67.76,4.49-.09,13.48,2.68,16.79.89,1.06,2.53,1.38,3.24,3.05,2.87,6.69-7.97,8.54-12.17,3.58-7.12-8.4,1.11-23.93-9.76-31.46-.96-.67-5.07-2.61-5.98-2.61h-30.06v32.92ZM468.09,241.7c9.69-1.87,19.68.94,29.42-.07,17.82-1.85,20.7-28.44,4.77-33.82-.61-.21-3.25-1.03-3.55-1.03h-30.63v34.93Z"/>
      <path d="M789.74,195.49c7.39-.56,14.92.68,21.68,3.74,4.72,2.13,15.02,8.54,9.66,14.43-4.15,4.56-8.18-1.57-11.81-3.7-12.69-7.44-40.57-5.82-36.34,14.01,2.33,10.93,24.85,13.53,33.83,17.13,8.3,3.33,15.91,9.76,16.87,19.2,3.31,32.56-40.07,35.77-59.73,20.22-3.06-2.42-6.48-6-3.27-9.94,4.03-4.94,7.7.66,10.95,2.83,10.37,6.92,34.71,10.52,40.61-3.37,7.62-17.94-18.76-21.3-29.51-24.91-32.54-10.92-25.22-47.2,7.05-49.65Z"/>
      <path d="M914.68,200.19c.98-5.93,8.87-6.43,9.7-1.11l.06,84.73c.35,4.35-5.09,5.9-8.02,3.39-2.17-1.85-1.75-5.72-1.74-8.28-15.44,18.59-43.5,11.59-50.1-11.45-8.59-29.98,17.53-57.29,45.79-38.92l4.31,4v-32.35ZM889.92,232.12c-24.2,3.31-22.52,49.66,5,47.94,28.58-1.79,26.64-52.26-5-47.94Z"/>
      <path d="M262.95,379.11c-5.42,1.59-10.61,3.84-16.03,5.44-32.77,9.72-73.35,9.25-105.9-1.17-3.32-1.06-8.87-2.72-11.8-4.22-.6-.31-1.08.3-.82-1.19,13.35-2.71,26.28-6.9,39.87-8.52,27.55-3.29,67.21-1.71,93.22,8.56.6.24,1.38.21,1.47,1.1Z"/>
      <path d="M259.52,13.25c-42.22,12.31-87.63,11.16-129.97,0,1.23-1.4,4.14-2.21,6-2.87,40.06-14.12,79.75-13.74,119.69.56,1.33.48,3.52,1.06,4.27,2.3Z"/>
      <path d="M649.58,257.73c.13,17.52,18.38,27.57,33.8,19.78,3.34-1.69,9.12-9.36,12.83-3.71,3.29,5.02-8.16,12.03-12.13,13.57-29.82,11.53-52.75-18.42-41.38-46.54,9.55-23.63,43.52-24.65,53.54-.84,1.48,3.53,3.3,10.81,2.46,14.47-.18.8-1.99,3.27-2.46,3.27h-46.66ZM688.52,249.14c-2.56-23.46-35.28-22.63-38.36,0h38.36Z"/>
      <path d="M948.46,257.73c-.71,17.14,17.27,27.32,32.45,20.14,3.43-1.62,6.25-6.02,9.64-5.89s5.16,3.2,3.85,6.21c-2.35,5.42-14.25,10.51-19.9,11.02-49.74,4.47-46.01-71.25-2.34-66.35,14.63,1.64,26.45,17.18,24.34,31.69-.16,1.11-1.61,3.18-2.53,3.18h-45.52ZM986.82,249.14c-2.17-23.19-35.47-22.83-37.79,0h37.79Z"/>
      <path d="M321.35,52.18c-39.3,2.82-78.14,9.39-116.79,16.6l26.52-13.26c14.16-6.06,28.8-10.97,43.78-14.62,6.43-1.57,20.23-5.31,26.21-5.35.8,0,1.18.03,1.94.33,1.24.5,6.71,5.3,8.31,6.58,2.29,1.83,5.42,4.29,7.47,6.27.47.46,3.2,2.9,2.56,3.45Z"/>
      <path d="M599.19,273.19l20.72-47.14c3.42-5.59,10.8-2.04,8.78,4.21-7.9,16.67-14.44,34.1-22.7,50.58-2.94,5.87-6.02,12.01-12.62,4.77-7.07-17.09-16.65-33.85-23.47-50.96-1.14-2.87-3.12-5.67-1.75-8.83s6.87-3.4,8.64-.34c7.86,14.52,13.07,31.71,20.96,46.03.22.41,1.04,2.01,1.45,1.69Z"/>
      <path d="M750.77,224.68c1.84,1.81,1.43,5.83-.76,7.23-2.91,1.85-5.83-.49-8.53-.51-7.5-.06-14.93,8.65-16.63,15.44-2.77,11.12.43,26.34-.96,37.97-1.87,5.39-8.95,4.7-9.63-1.01l.33-56.95c1.31-2.49,2.73-3.22,5.55-2.76,4.71.76,3.69,6.84,3.87,10.48.03.65-.37,1.57.57,1.42,3.02-7.98,11.67-13.86,20.36-13.18,1.45.11,4.87.95,5.83,1.9Z"/>
      <path d="M545.22,223.5c3.95-.89,6.03.93,6.46,4.75,1.95,17.21-1.47,37.96.01,55.55-.51,5.29-6.6,5.7-9.45,1.98l-.31-58.12c.04-1.9,1.39-3.74,3.29-4.16Z"/>
      <path d="M841.8,223.5c3.26-.72,6.2.67,6.47,4.16l-.31,58.11c-2.56,4-9.08,2.93-9.45-1.98,1.47-17.6-1.93-38.32.01-55.55.24-2.15.9-4.22,3.27-4.75Z"/>
      <path d="M492.15,145.96c-.05-.63-.3-1.93-1.14-2l-12,19.04c-.96,1.17-2.77,1.19-3.87.25l-13.33-19.3v31.2c0,1.68-4.01,1.29-4.01.86v-40.94l2.49-1.34c2.29.44,13.79,21.08,16.69,23.94l15.5-22.85c.62-1.62,3.68-.64,3.68.25v40.08c0,1.66-4.01,1.66-4.01,0,0-9.19.78-20.28,0-29.2Z"/>
      <path d="M814.93,133.8c32.93-4.77,33.59,47.35-.1,42.74-20.55-2.81-21.2-39.65.1-42.74ZM817.81,137.8c-20.11,1.58-18.78,36.81,3.26,34.77,19.94-1.84,18.64-36.49-3.26-34.77Z"/>
      <path d="M607.8,175.16c-.55,1.95-4,2.32-4.54-1.18-1.69-10.96,1.2-25.82-.06-37.2,0-.65.13-1.23.54-1.75,1.86-2.33,18.57-1.42,21.84-.54,9.63,2.61,10.33,17.83,1.71,22.35,5.86,3.15,3.87,9.43,5.39,14.07.59,1.82,5.97,3.88.07,5.71-7.6-2.92-2.12-13.13-8.12-16.56-.4-.23-3.15-1.22-3.36-1.22h-12.6l-.86.86v15.46ZM607.8,154.83h15.17c.75,0,4-2.58,4.56-3.46,1.91-3.02,1.93-7.68-.35-10.48-.62-.76-3.46-2.66-4.21-2.66h-15.17v16.6Z"/>
      <path d="M566,163.71c-2.07,15.31-25.61,17.76-31.03,4.12-2.24-5.63-2.23-23.46-1.63-29.91.51-5.45,4.61-4.1,4.61-2.84v26.34c0,.34,1.02,3.85,1.26,4.46,2.15,5.4,7.68,7.51,13.2,6.56,14.72-2.54,6.88-26.15,9.13-36.09.26-1.17,1-2.02,2.12-2.44l2.34,1.18v28.63Z"/>
      <path d="M700.7,175.86c-1.64-1.6-3.12-8.64-4.67-10.94l-19.15-.26c-2.58.88-4.27,16.2-8.88,10.38l17.48-41.34,1.65.47,17.17,39.55c.52,2.23-1.84,3.86-3.61,2.13ZM693.68,160.56c-.67-3.43-2.35-7.02-3.74-10.29-1.2-2.82-2.4-6.3-4.27-8.61l-7.45,18.89h15.46Z"/>
      <path d="M742.35,159.41v15.75c0,1.66-4.01,1.66-4.01,0v-40.08l.95-.77c5.72-.59,11.9-1.12,17.61-.04,11.29,2.13,13.11,19.04,2.63,23.71-.54.24-4.07,1.43-4.3,1.43h-12.88ZM742.35,154.83h14.03c4.9,0,7.27-8.84,4.56-13.14-.55-.87-3.8-3.46-4.56-3.46h-14.03v16.6Z"/>
      <path d="M880.33,172.01c2.82-.51,5.67.63,8.3.63s13.18-2.6,12.85,1.96c-.11,1.5-1.24,1.85-2.52,2.02-3.81.51-16.82.49-20.67,0-.98-.13-1.74-.21-2.27-1.17l-.29-39.8c.63-3.29,4.58-1.19,4.58,0v36.36Z"/>
      <path d="M544.64,198.31c5.83-1.33,9.18,1.65,8.71,7.53-.42,5.17-4.22,5.68-8.79,4.91-5.48-.92-4.92-11.3.09-12.44Z"/>
      <path d="M841.22,198.31c7.3-1.65,9.18,2.81,8.15,9.29-.6,3.79-5.77,3.74-8.82,3.17-4.33-.81-4.57-11.27.68-12.46Z"/>
    </g>
  </g>
</svg>